<svg xmlns="http://www.w3.org/2000/svg" xmlns:xlink="http://www.w3.org/1999/xlink" viewBox="0 0 160.01 43.28"><defs><style>.cls-1{fill:#20313f;}.cls-2{fill:#61c4e1;}.cls-3{fill:url(#linear-gradient);}</style><linearGradient id="linear-gradient" y1="33" x2="104.38" y2="33" gradientUnits="userSpaceOnUse"><stop offset="0" stop-color="#fff" stop-opacity="0"/><stop offset="1" stop-color="#61c4e1"/></linearGradient></defs><title>LIMS HEALTH DEKHO_1</title><g id="Layer_2" data-name="Layer 2"><g id="Layer_1-2" data-name="Layer 1"><g id="Layer_1-2-2" data-name="Layer 1-2"><path class="cls-1" d="M43.21,16.47H33.15c.13,2.17,1.86,3.75,4.4,3.75A9.83,9.83,0,0,0,42.1,19l.56,1.8a10.35,10.35,0,0,1-5.82,1.79c-3.79,0-6.79-2.5-6.79-6.92,0-4.15,2.66-6.93,6.68-6.93a6.23,6.23,0,0,1,6.62,5.79c0,.21,0,.41,0,.61A6,6,0,0,1,43.21,16.47Zm-3.06-1.82a3.26,3.26,0,0,0-3.1-3.42,3.77,3.77,0,0,0-3.9,3.42Z"/><path class="cls-1" d="M55.1,14.71v7.58H51.91v-1a6.29,6.29,0,0,1-3.71,1.33c-3,0-5-1.67-5-4.08s2-4.15,5-4.15a12.14,12.14,0,0,1,3.71.71v-.22c0-2.41-1-3.55-2.88-3.62a9.44,9.44,0,0,0-3.78.81l-.64-2a12,12,0,0,1,5.32-1.33C53.05,8.74,55.1,11.06,55.1,14.71Zm-3.19,4.77V17a9.41,9.41,0,0,0-3-.59c-1.61,0-2.66.74-2.66,2s1,2,2.66,2A6.29,6.29,0,0,0,51.91,19.48Z"/><path class="cls-1" d="M56.71,0h3.18V22.6H56.71Z"/><path class="cls-1" d="M70.84,21.51a4.66,4.66,0,0,1-3.17,1.09c-3,0-5-2.32-5-5.94V11.71h-2v-1l2-1.18V5.7l3.19-1V9.33l4.43-.25v2.63H65.87V16.5c0,2.42,1,3.63,2.82,3.63a7.61,7.61,0,0,0,2.15-.53Z"/><path class="cls-1" d="M83.67,15v7.6H80.48V15.18c0-2.45-1-3.62-2.81-3.62A4.6,4.6,0,0,0,74.6,13v9.6H71.41V0H74.6V10.9A6,6,0,0,1,78.69,9C81.72,9.05,83.67,11.4,83.67,15Z"/><path class="cls-2" d="M105.46,11.31c0,6.84-4.46,11.29-11.15,11.29H85.84V13.27h3.59L85.84,9.72V0h8.47C101.05,0,105.46,4.47,105.46,11.31Zm-3.81,0c0-5.05-3.13-8.31-7.34-8.31H89.43V19.63h4.88C98.52,19.63,101.65,16.35,101.65,11.31Z"/><path class="cls-2" d="M118.89,16.47H108.83c.12,2.17,1.86,3.75,4.4,3.75A9.79,9.79,0,0,0,117.77,19l.56,1.8a10.35,10.35,0,0,1-5.82,1.79c-3.83,0-6.77-2.51-6.77-6.93,0-4.15,2.66-6.93,6.68-6.93A6.21,6.21,0,0,1,119,14.51c0,.21,0,.41,0,.62A7.53,7.53,0,0,1,118.89,16.47Zm-3.06-1.82a3.26,3.26,0,0,0-3.1-3.42,3.53,3.53,0,0,0-.46,0,3.49,3.49,0,0,0-3.44,3.41Z"/><path class="cls-2" d="M128.48,22.6l-5.32-6.06V22.6H120V0h3.19V14.93l4.52-5.54h3.68l-5.26,6.06,6.37,7.15Z"/><path class="cls-2" d="M145.29,15v7.6H142.1V15.18c0-2.45-1-3.62-2.81-3.62A4.65,4.65,0,0,0,136.22,13v9.6h-3.17V0h3.18V10.9A6,6,0,0,1,140.32,9C143.34,9.05,145.29,11.4,145.29,15Z"/><path class="cls-2" d="M146.05,15.67c0-4.15,2.69-6.93,6.8-6.93s6.81,2.78,6.81,6.93-2.75,6.93-6.81,6.93S146.05,19.85,146.05,15.67Zm10.46,0c0-2.79-1.43-4.49-3.66-4.49s-3.65,1.7-3.65,4.49,1.46,4.52,3.65,4.52,3.68-1.7,3.68-4.52Z"/><polygon class="cls-1" points="25.12 0 25.12 9.7 21.96 9.7 25.12 12.87 25.12 22.59 28.31 22.59 28.31 0 25.12 0"/><polygon class="cls-1" points="22.64 12.89 19.46 9.7 12.94 9.7 12.94 0 9.75 0 9.75 9.7 0.05 9.7 0.05 12.89 9.75 12.89 9.75 22.59 12.94 22.59 12.94 12.89 22.64 12.89"/></g><path class="cls-1" d="M107.8,23.64h1.29V41.57H119.4v1.22H107.8Z"/><path class="cls-1" d="M121,42.79V23.64h1.29V42.79Z"/><path class="cls-1" d="M125.82,42.79V23.64h2l7,17.54,7-17.54h2V42.79h-1.29V25.13l-7.14,17.66h-1.2l-7.13-17.66V42.79Z"/><path class="cls-1" d="M148.12,41.4a5.9,5.9,0,0,1-2-4.48h1.3A4.83,4.83,0,0,0,149,40.56a5.26,5.26,0,0,0,3.81,1.52A6.83,6.83,0,0,0,157,40.79a3.81,3.81,0,0,0,1.71-3.13A3.15,3.15,0,0,0,157.2,35a8,8,0,0,0-4-1.29A8.77,8.77,0,0,1,148.29,32a4.52,4.52,0,0,1-1.85-3.65,4.58,4.58,0,0,1,1.88-3.65,7,7,0,0,1,4.52-1.51,7.7,7.7,0,0,1,4.88,1.58,4.72,4.72,0,0,1,2,3.81h-1.29a3.59,3.59,0,0,0-1.65-2.94,6.32,6.32,0,0,0-3.94-1.23,5.75,5.75,0,0,0-3.62,1.17,3.37,3.37,0,0,0-1.48,2.77A3.23,3.23,0,0,0,149.29,31a8.49,8.49,0,0,0,4.16,1.32,8.61,8.61,0,0,1,4.78,1.71A4.46,4.46,0,0,1,160,37.66a4.91,4.91,0,0,1-2.1,4,8,8,0,0,1-5.07,1.65A6.56,6.56,0,0,1,148.12,41.4Z"/><polygon class="cls-3" points="0 42.57 104.38 42.57 104.38 41.4 104.38 24.61 104.38 23.43 0 23.43 0 24.61 0 41.4 0 42.57"/></g></g></svg>